HIERARCHY
ROOT Hips
{
	OFFSET -3.958830 18.904000 13.208200
	CHANNELS 6 Xposition Yposition Zposition Zrotation Yrotation Xrotation 
	JOINT LHipJoint
	{
		OFFSET 0.000000 0.000000 0.000000
		CHANNELS 3 Zrotation Yrotation Xrotation
		JOINT LeftUpLeg
		{
			OFFSET 1.800000 -1.400000 0.085000
			CHANNELS 3 Zrotation Yrotation Xrotation
			JOINT LeftLeg
			{
				OFFSET 2.215000 -6.000000 0.000000
				CHANNELS 3 Zrotation Yrotation Xrotation
				JOINT LeftFoot
				{
					OFFSET 2.500000 -6.900000 0.000000
					CHANNELS 3 Zrotation Yrotation Xrotation
					JOINT LeftToeBase
					{
						OFFSET 0.200000 -0.500000 1.950000
						CHANNELS 3 Zrotation Yrotation Xrotation
						End Site
						{
							OFFSET 0.000000 0.000000 0.000000
						}
					}
				}
			}
		}
	}
	JOINT RHipJoint
	{
		OFFSET 0.000000 0.000000 0.000000
		CHANNELS 3 Zrotation Yrotation Xrotation
		JOINT RightUpLeg
		{
			OFFSET -1.800000 -1.400000 0.085000
			CHANNELS 3 Zrotation Yrotation Xrotation
			JOINT RightLeg
			{
				OFFSET -2.215000 -6.000000 0.000000
				CHANNELS 3 Zrotation Yrotation Xrotation
				JOINT RightFoot
				{
					OFFSET -2.500000 -6.900000 0.000000
					CHANNELS 3 Zrotation Yrotation Xrotation
					JOINT RightToeBase
					{
						OFFSET -0.200000 -0.500000 1.950000
						CHANNELS 3 Zrotation Yrotation Xrotation
						End Site
						{
							OFFSET 0.000000 0.000000 0.000000
						}
					}
				}
			}
		}
	}
	JOINT LowerBack
	{
		OFFSET 0.000000 0.000000 0.000000
		CHANNELS 3 Zrotation Yrotation Xrotation
		JOINT Spine
		{
			OFFSET -0.087000 1.940000 -0.288900
			CHANNELS 3 Zrotation Yrotation Xrotation
			JOINT Spine1
			{
				OFFSET 0.000000 1.950000 0.060000
				CHANNELS 3 Zrotation Yrotation Xrotation
				JOINT Neck
				{
					OFFSET 0.000000 0.000000 0.000000
					CHANNELS 3 Zrotation Yrotation Xrotation
					JOINT Neck1
					{
						OFFSET 0.000000 1.600000 0.340000
						CHANNELS 3 Zrotation Yrotation Xrotation
						JOINT Head
						{
							OFFSET 0.000000 1.667000 -0.240000
							CHANNELS 3 Zrotation Yrotation Xrotation
							End Site
							{
								OFFSET 0.000000 0.000000 0.000000
							}
						}
					}
				}
				JOINT LeftShoulder
				{
					OFFSET 0.000000 0.000000 0.000000
					CHANNELS 3 Zrotation Yrotation Xrotation
					JOINT LeftArm
					{
						OFFSET 2.700000 1.550000 -0.730000
						CHANNELS 3 Zrotation Yrotation Xrotation
						JOINT LeftForeArm
						{
							OFFSET 5.450000 0.000000 0.000000
							CHANNELS 3 Zrotation Yrotation Xrotation
							JOINT LeftHand
							{
								OFFSET 3.450000 0.000000 0.000000
								CHANNELS 3 Zrotation Yrotation Xrotation
								JOINT LeftHandIndex1
								{
									OFFSET 0.750000 0.000000 0.000000
									CHANNELS 3 Zrotation Yrotation Xrotation
									End Site
									{
										OFFSET 0.000000 0.000000 0.000000
									}
								}
							}
						}
					}
				}
				JOINT RightShoulder
				{
					OFFSET 0.000000 0.000000 0.000000
					CHANNELS 3 Zrotation Yrotation Xrotation
					JOINT RightArm
					{
						OFFSET -2.700000 1.550000 -0.730000
						CHANNELS 3 Zrotation Yrotation Xrotation
						JOINT RightForeArm
						{
							OFFSET -5.450000 0.000000 0.000000
							CHANNELS 3 Zrotation Yrotation Xrotation
							JOINT RightHand
							{
								OFFSET -3.450000 0.000000 0.000000
								CHANNELS 3 Zrotation Yrotation Xrotation
								JOINT RightHandIndex1
								{
									OFFSET -0.750000 0.000000 0.000000
									CHANNELS 3 Zrotation Yrotation Xrotation
									End Site
									{
										OFFSET 0.000000 0.000000 0.000000
									}
								}
							}
						}
					}
				}
			}
		}
	}
}
MOTION
Frames: 7
Frame Time: 0.016667
-4.480520 16.544650 -3.961000 3.674797 2.719143 -9.976575 -16.028923 10.830332 7.185759 36.310484 3.695672 -43.091533 -23.009051 31.196484 52.767302 1.568107 13.645367 -0.282708 0.424320 0.371810 0.386520 18.046071 -9.271043 0.755014 -28.721628 2.049002 -11.206683 6.994650 -10.867752 35.140738 -0.596804 -6.121893 1.998339 0.207330 -0.257310 -0.012560 -2.217812 -2.705435 -9.247154 -5.145733 5.161763 27.741797 -0.249062 6.619467 8.309030 1.092633 -8.571169 -13.677808 -23.614020 13.026388 43.044840 -0.725610 5.081710 -15.810030 -5.494460 -7.749558 5.610000 -6.335544 0.463027 0.734752 -105.394495 -35.388075 38.111904 -3.335982 3.620189 0.465670 -0.256380 0.264620 -0.005220 3.876786 18.463343 8.337257 7.667432 0.308482 -7.405875 134.320749 61.642620 96.221032 2.398440 -1.274044 -0.029990 0.162680 -0.101540 -0.182800 
-4.524110 16.526980 -3.940740 3.287478 1.011130 -10.390576 -16.100072 10.903053 7.179511 38.557248 3.980211 -40.959984 -21.870096 31.727330 54.389382 1.638056 13.791764 -0.322888 0.430610 0.381010 0.400490 17.989246 -9.365017 0.642632 -27.080921 1.583745 -11.888071 5.106047 -10.270707 36.501392 -0.608526 -6.017677 2.044937 0.195520 -0.280660 -0.011770 -2.039802 -2.630732 -9.221483 -7.409099 5.831075 26.244398 1.118905 6.799197 8.879112 0.993541 -6.499541 -13.817510 -18.917361 9.665443 46.533839 1.011500 3.911480 -15.624220 -5.287024 -8.824610 5.496594 -7.478911 -0.867122 0.216028 -109.562305 -39.395415 45.501081 -3.306389 3.622965 0.480450 -0.274080 0.289730 -0.007680 4.037676 18.145751 9.448136 12.082823 0.873890 -6.027047 119.397776 58.812240 71.857107 2.607627 -1.419422 -0.015190 0.146840 -0.118760 -0.185330 
-4.562330 16.524720 -3.906370 2.800328 -0.817305 -10.807129 -16.143869 11.034885 7.001043 40.375612 4.165347 -37.904711 -20.014626 31.444496 55.401283 1.648598 13.794678 -0.316586 0.431950 0.383650 0.406580 17.936786 -9.530059 0.562162 -25.547856 1.079542 -11.799599 3.613041 -9.514587 36.337759 -0.588597 -5.820529 2.130261 0.197830 -0.267270 -0.005760 -1.897117 -2.457616 -9.086506 -9.568536 6.590640 24.008325 2.663565 7.158576 9.520679 0.668410 -3.968197 -13.375601 -13.086107 6.015281 48.491266 2.405320 3.193990 -14.730830 -5.773942 -9.787400 5.187596 -9.284724 -2.964472 -0.095593 -112.873757 -44.492111 54.393620 -3.330117 3.614964 0.471960 -0.256070 0.289200 0.001550 5.209106 17.268377 9.779832 16.947602 1.485108 -5.298883 102.672080 57.012581 52.865351 2.632539 -1.581021 -0.016700 0.143050 -0.131380 -0.186820 
-4.591140 16.552310 -3.860380 1.841249 -2.707976 -11.728604 -16.126602 11.366303 6.589054 41.424465 3.845533 -33.424479 -17.444382 29.754907 55.225883 1.576038 13.482686 -0.250199 0.429890 0.387350 0.420010 17.888055 -9.802418 0.546200 -23.503224 0.487250 -10.752809 2.395007 -8.698133 35.196031 -0.563537 -5.544437 2.248343 0.194130 -0.274440 -0.000650 -1.833975 -2.335058 -8.861449 -10.529259 6.826834 22.144881 3.643663 7.322501 10.013456 0.443646 -1.796398 -13.030543 -8.478055 3.717712 50.163689 3.006820 3.611280 -13.719730 -8.019375 -11.090466 4.991379 -11.347839 -4.617747 -0.608349 -115.191537 -51.589386 65.331808 -3.391370 3.555991 0.461350 -0.242050 0.293080 -0.006170 7.931619 16.714378 9.921170 22.731064 1.070063 -5.697563 87.328944 54.540119 39.171295 2.561076 -1.677295 -0.009650 0.120990 -0.140670 -0.195940 
-4.593370 16.585270 -3.794900 0.544229 -4.356954 -12.225447 -16.068452 11.752390 6.053449 41.706907 3.328282 -28.835145 -14.705115 27.334359 53.913816 1.467226 12.940978 -0.112447 0.422880 0.391420 0.411250 17.857837 -10.084789 0.615276 -21.699670 -0.113077 -9.544481 1.846474 -8.115337 33.358920 -0.536530 -5.275304 2.374449 0.185580 -0.270110 -0.000500 -1.837300 -2.233178 -8.604889 -10.522802 6.262562 19.541109 4.152763 6.777435 10.668763 0.290437 -0.270270 -12.946160 -5.152898 2.712751 51.474743 3.921700 4.335190 -12.050740 -9.626666 -11.936221 5.462214 -16.618775 -5.299777 -1.196482 -115.641063 -57.951490 72.975237 -3.452303 3.451841 0.439790 -0.226150 0.288730 -0.000970 9.944937 15.980193 9.645697 29.418381 1.030222 -6.644918 70.588117 51.308088 27.316769 2.472258 -1.690050 0.001390 0.097610 -0.151780 -0.192010 
-4.583570 16.620960 -3.723380 -0.936633 -5.423999 -12.640255 -15.980027 12.209999 5.390940 41.366213 2.775276 -24.230007 -11.234995 24.042125 51.624018 1.280083 12.165222 0.103702 0.399670 0.364790 0.388490 17.835627 -10.362193 0.778838 -20.309960 -0.691616 -7.992281 2.239282 -7.902119 31.022597 -0.504048 -5.092570 2.468960 0.177530 -0.237240 0.001080 -1.882717 -2.192295 -8.338996 -9.517044 5.457283 16.993558 4.222835 6.201727 10.920504 0.078890 0.420922 -12.365258 -3.776470 2.284393 52.274415 4.522000 4.480720 -9.872390 -13.035561 -12.424856 5.347261 -21.219919 -6.744642 -1.689193 -117.333088 -65.678886 83.914481 -3.550584 3.170459 0.406080 -0.192720 0.256840 0.002780 13.870978 15.359775 9.166557 34.519034 0.978117 -7.351441 54.170164 46.927809 17.755955 2.405198 -1.637655 -0.005070 0.086110 -0.144460 -0.186220 
-4.545140 16.655690 -3.664090 -2.658079 -6.777715 -13.065016 -15.863272 12.682637 4.661963 40.584520 2.194880 -19.291791 -7.968994 20.590844 48.101689 1.068155 11.199436 0.398334 0.369360 0.328210 0.381460 17.825806 -10.642530 1.013946 -19.367661 -1.248967 -6.592311 3.322108 -8.038951 28.811098 -0.496749 -5.012851 2.527175 0.159110 -0.212770 0.000330 -1.971281 -2.125888 -8.079759 -7.724355 4.533621 14.513679 3.609700 5.594601 10.983218 0.249823 1.325382 -11.880995 -2.105274 1.873486 53.920810 4.207950 5.238320 -7.685840 -17.465763 -13.220761 5.275243 -26.001363 -8.265338 -2.405985 -127.521330 -71.276897 103.163074 -3.513643 2.846586 0.383580 -0.159420 0.235660 0.000460 18.062757 14.707589 8.886276 39.676880 0.125163 -8.267910 38.680024 42.260123 10.379188 2.354560 -1.530865 -0.017010 0.081570 -0.137920 -0.191130 
